<svg width="490" height="477" viewBox="0 0 490 477" fill="none" xmlns="http://www.w3.org/2000/svg">
<g id="the-big-idea" clip-path="url(#clip0_2065_4)">
<g id="envelope">
<path id="Vector" d="M1 286.4C4.21848 284.25 7.55883 282.687 10.6216 280.697C13.7586 278.658 16.8444 276.434 19.5516 273.868C22.8513 270.741 26.4799 271.228 29.4173 273.302C36.4921 278.296 43.1535 283.875 49.5611 289.636C42.4213 294.694 35.7021 299.337 28.6102 303.98C25.8255 303.991 23.4135 304.001 20.8066 303.738C14.0744 298.977 7.53719 294.489 1 290C1 288.933 1 287.867 1 286.4Z" fill="#F1E479"/>
<path id="Vector_2" d="M21.0016 304.011C23.4135 304.001 25.8255 303.991 28.7591 304.285C32.3115 307.125 35.4461 309.548 38.3455 312.226C41.6785 315.304 44.8035 318.608 48.0187 321.814C32.6583 321.876 17.2978 321.938 1.46866 322C1 321.556 1 321.111 1.31207 320.198C8.08328 314.49 14.5424 309.251 21.0016 304.011Z" fill="#EEC541"/>
<path id="Vector_3" d="M20.8066 303.738C14.5424 309.251 8.08328 314.49 1.31207 319.865C1 310.312 1 300.625 1 290.469C7.53719 294.489 14.0744 298.977 20.8066 303.738Z" fill="#F2DC43"/>
<path id="Vector_4" d="M48.4504 321.87C44.8035 318.608 41.6785 315.304 38.3455 312.226C35.4461 309.548 32.3115 307.125 29.1319 304.284C35.7021 299.337 42.4213 294.694 49.4838 289.995C49.8838 299.833 49.9655 309.729 49.9485 319.625C49.9472 320.393 49.2537 321.159 48.4504 321.87Z" fill="#F2DC44"/>
</g>
<g id="chart">
<path id="Vector_5" d="M119.267 458.001C119.009 448.699 119.005 439.378 119.008 429.596C119.342 430.595 119.936 432.051 119.954 433.513C120.049 441.317 120 449.123 120.007 457.386C119.849 457.889 119.685 457.935 119.267 458.001Z" fill="#33CECC"/>
<path id="Vector_6" d="M73.9281 457.927C73.9281 444.167 73.9281 430.407 73.9281 416.325C77.9864 416.325 81.7007 416.325 86.0104 416.325C86.0104 429.897 86.0104 443.453 85.7449 457.761C81.629 458.317 77.7785 458.122 73.9281 457.927Z" fill="#EF516A"/>
<path id="Vector_7" d="M90.9254 457.932C90.9254 446.485 90.9254 435.038 90.9254 423.297C94.9705 423.297 98.6977 423.297 103.007 423.297C103.007 434.505 103.007 445.747 102.672 457.645C98.533 458.177 94.7292 458.055 90.9254 457.932Z" fill="#F1E47A"/>
<path id="Vector_8" d="M90.5228 457.964C94.7292 458.055 98.533 458.177 102.706 458.107C104.109 457.94 105.144 457.967 106.924 458.149C111.451 458.21 115.232 458.116 119.267 458.001C119.685 457.935 119.849 457.889 120.013 457.843C123.973 457.843 127.932 457.843 131.892 457.843C132.118 458.412 132.344 458.981 132.57 459.551C131.232 460.367 129.899 461.884 128.554 461.894C108.937 462.048 89.3171 461.952 69.6986 462.047C66.3643 462.063 65.9523 460.375 65.9657 457.664C66.0373 443.2 65.9383 428.734 66.0964 414.271C66.1118 412.862 67.4808 411.468 68.2215 410.067C68.8145 411.45 69.9093 412.828 69.9227 414.216C70.0523 427.682 70.0396 441.15 69.9632 454.617C69.9501 456.914 70.1447 458.575 73.4894 457.961C77.7785 458.122 81.629 458.317 85.7808 458.225C87.4283 457.957 88.7743 457.976 90.5228 457.964Z" fill="#FEFEFE"/>
<path id="Vector_9" d="M119.013 458.021C115.232 458.116 111.451 458.21 107.309 458.1C106.949 448.464 106.949 439.031 106.949 429.023C110.906 429.023 114.499 429.023 118.546 429.539C119.005 439.378 119.009 448.699 119.013 458.021Z" fill="#28BDBA"/>
</g>
<g id="chat">
<path id="Vector_10" d="M269.531 1C276.204 8.77141 273.231 17.9642 274.081 26.5894C274.584 31.6959 270.52 36.4987 266.152 36.6577C259.716 36.8919 255.953 41.5112 250.816 43.7315C249.388 44.3488 248.11 45.314 246.097 46.5179C246.097 42.9989 246.097 40.2738 246.097 36.9981C238.58 36.9981 231.485 37.0167 224.39 36.993C216.989 36.9682 213.027 32.9315 213.003 25.4321C212.992 21.7759 213.259 18.0968 212.939 14.4688C212.49 9.36699 213.536 4.98786 217.29 1.29647C234.354 1 251.708 1 269.531 1ZM246.17 16.8947C246.403 19.6687 247.935 20.8046 250.365 19.4802C251.09 19.0855 250.949 17.1031 251.204 15.8482C249.613 15.9734 248.021 16.0985 246.17 16.8947Z" fill="#28BEB9"/>
<path id="Vector_11" d="M246.299 16.5592C248.021 16.0985 249.613 15.9734 251.204 15.8482C250.949 17.1031 251.09 19.0855 250.365 19.4802C247.935 20.8046 246.403 19.6687 246.299 16.5592Z" fill="#DEEDAA"/>
</g>
<g id="gear">
<path id="Vector_12" d="M491 312.539C490.484 313.035 489.709 312.864 489.489 313.137C486.403 316.979 482.892 316.657 478.967 314.546C475.393 312.624 472.597 314.477 471.911 318.467C471.474 321.015 470.611 325.147 469.143 325.532C465.657 326.445 461.642 325.852 457.968 325.177C457.063 325.01 456.201 322.235 456.077 320.602C455.574 313.969 452.997 312.281 447.168 314.942C443.606 316.568 440.351 317.103 437.933 312.76C433.931 305.573 433.936 304.024 438.99 300.469C443.354 297.398 443.287 294.401 438.784 291.282C434.275 288.159 433.858 285.575 436.981 280.098C440.108 274.614 441.874 274.013 447.18 276.632C452.423 279.219 456.044 277.302 455.867 271.335C455.7 265.725 457.836 264.618 465.409 264.975C470.108 265.197 471.873 266.99 472 272.127C472.135 277.576 475.059 279.771 479.427 276.98C484.406 273.798 487.515 275.412 490.694 279.283C491 282.693 491 286.386 490.694 290.238C487.742 291.563 484.219 292.735 485.261 296.174C485.869 298.178 489.003 299.417 491 301C491 304.693 491 308.386 491 312.539ZM453.793 281.105C444.058 289.244 443.362 300.143 452.041 308.546C457.724 314.048 467.901 314.873 474.055 310.33C480.834 305.326 483.35 295.253 479.48 288.016C475.474 280.523 465.302 274.19 453.793 281.105Z" fill="#70A5D8"/>
<path id="Vector_13" d="M454.135 280.946C465.302 274.19 475.474 280.523 479.48 288.016C483.35 295.253 480.834 305.326 474.055 310.33C467.901 314.873 457.724 314.048 452.041 308.545C443.362 300.143 444.058 289.244 454.135 280.946ZM466.345 301.085C467.41 298.742 469.148 296.433 469.267 294.043C469.33 292.769 466.63 290.315 465.11 290.26C463.022 290.185 460.278 291.383 458.937 292.978C457.894 294.217 457.699 297.853 458.666 298.732C460.453 300.358 463.368 300.746 466.345 301.085Z" fill="#6097CF"/>
</g>
<g id="lightbulb">
<path id="Vector_14" d="M197.091 373.697C195.808 371.36 193.465 369.048 193.41 366.682C192.93 346.142 185.178 328.717 172.271 313.019C127.354 258.388 155.916 177.257 225.238 162.492C231.037 161.257 237.121 161.357 243.534 161.375C243.998 231.97 244.002 302.026 243.544 372.177C229.986 372.291 216.889 372.247 203.794 372.39C201.555 372.414 199.325 373.241 197.091 373.697Z" fill="#F2DC43"/>
<path id="Vector_15" d="M244.005 372.082C244.002 302.026 243.998 231.97 243.994 161.443C279.301 161.243 306.107 177.061 323.851 207.003C344.639 242.08 339.855 284.17 313.364 315.17C301.09 329.534 294.599 346.317 293.812 365.321C293.701 368.007 291.882 370.622 290.126 373.3C287.143 372.989 284.891 372.383 282.631 372.354C269.756 372.187 256.88 372.158 244.005 372.082Z" fill="#EEC540"/>
<path id="The Big Idea!" d="M200.975 261V247.368H195.599V244.2H210.239V247.368H204.863V261H200.975ZM219.915 247.896C220.939 247.896 221.851 248.104 222.651 248.52C223.467 248.92 224.107 249.544 224.571 250.392C225.035 251.224 225.267 252.296 225.267 253.608V261H221.523V254.184C221.523 253.144 221.291 252.376 220.827 251.88C220.379 251.384 219.739 251.136 218.907 251.136C218.315 251.136 217.779 251.264 217.299 251.52C216.835 251.76 216.467 252.136 216.195 252.648C215.939 253.16 215.811 253.816 215.811 254.616V261H212.067V243.192H215.811V251.664L214.971 250.584C215.435 249.72 216.099 249.056 216.963 248.592C217.827 248.128 218.811 247.896 219.915 247.896ZM235.163 261.192C233.691 261.192 232.395 260.904 231.275 260.328C230.171 259.752 229.315 258.968 228.707 257.976C228.099 256.968 227.795 255.824 227.795 254.544C227.795 253.248 228.091 252.104 228.683 251.112C229.291 250.104 230.115 249.32 231.155 248.76C232.195 248.184 233.371 247.896 234.683 247.896C235.947 247.896 237.083 248.168 238.091 248.712C239.115 249.24 239.923 250.008 240.515 251.016C241.107 252.008 241.403 253.2 241.403 254.592C241.403 254.736 241.395 254.904 241.379 255.096C241.363 255.272 241.347 255.44 241.331 255.6H230.843V253.416H239.363L237.923 254.064C237.923 253.392 237.787 252.808 237.515 252.312C237.243 251.816 236.867 251.432 236.387 251.16C235.907 250.872 235.347 250.728 234.707 250.728C234.067 250.728 233.499 250.872 233.003 251.16C232.523 251.432 232.147 251.824 231.875 252.336C231.603 252.832 231.467 253.424 231.467 254.112V254.688C231.467 255.392 231.619 256.016 231.923 256.56C232.243 257.088 232.683 257.496 233.243 257.784C233.819 258.056 234.491 258.192 235.259 258.192C235.947 258.192 236.547 258.088 237.059 257.88C237.587 257.672 238.067 257.36 238.499 256.944L240.491 259.104C239.899 259.776 239.155 260.296 238.259 260.664C237.363 261.016 236.331 261.192 235.163 261.192ZM250.956 261V244.2H259.164C261.276 244.2 262.86 244.6 263.916 245.4C264.988 246.2 265.524 247.256 265.524 248.568C265.524 249.448 265.308 250.216 264.876 250.872C264.444 251.512 263.852 252.008 263.1 252.36C262.348 252.712 261.484 252.888 260.508 252.888L260.964 251.904C262.02 251.904 262.956 252.08 263.772 252.432C264.588 252.768 265.22 253.272 265.668 253.944C266.132 254.616 266.364 255.44 266.364 256.416C266.364 257.856 265.796 258.984 264.66 259.8C263.524 260.6 261.852 261 259.644 261H250.956ZM254.82 258.072H259.356C260.364 258.072 261.124 257.912 261.636 257.592C262.164 257.256 262.428 256.728 262.428 256.008C262.428 255.304 262.164 254.784 261.636 254.448C261.124 254.096 260.364 253.92 259.356 253.92H254.532V251.088H258.684C259.628 251.088 260.348 250.928 260.844 250.608C261.356 250.272 261.612 249.768 261.612 249.096C261.612 248.44 261.356 247.952 260.844 247.632C260.348 247.296 259.628 247.128 258.684 247.128H254.82V258.072ZM269.044 261V248.088H272.788V261H269.044ZM270.916 246.288C270.228 246.288 269.668 246.088 269.236 245.688C268.804 245.288 268.588 244.792 268.588 244.2C268.588 243.608 268.804 243.112 269.236 242.712C269.668 242.312 270.228 242.112 270.916 242.112C271.604 242.112 272.164 242.304 272.596 242.688C273.028 243.056 273.244 243.536 273.244 244.128C273.244 244.752 273.028 245.272 272.596 245.688C272.18 246.088 271.62 246.288 270.916 246.288ZM282.335 265.848C281.119 265.848 279.943 265.696 278.807 265.392C277.687 265.104 276.751 264.664 275.999 264.072L277.487 261.384C278.031 261.832 278.719 262.184 279.551 262.44C280.399 262.712 281.231 262.848 282.047 262.848C283.375 262.848 284.335 262.552 284.927 261.96C285.535 261.368 285.839 260.488 285.839 259.32V257.376L286.079 254.136L286.031 250.872V248.088H289.583V258.84C289.583 261.24 288.959 263.008 287.711 264.144C286.463 265.28 284.671 265.848 282.335 265.848ZM281.759 260.376C280.559 260.376 279.471 260.12 278.495 259.608C277.535 259.08 276.759 258.352 276.167 257.424C275.591 256.48 275.303 255.384 275.303 254.136C275.303 252.872 275.591 251.776 276.167 250.848C276.759 249.904 277.535 249.176 278.495 248.664C279.471 248.152 280.559 247.896 281.759 247.896C282.847 247.896 283.807 248.12 284.639 248.568C285.471 249 286.119 249.68 286.583 250.608C287.047 251.52 287.279 252.696 287.279 254.136C287.279 255.56 287.047 256.736 286.583 257.664C286.119 258.576 285.471 259.256 284.639 259.704C283.807 260.152 282.847 260.376 281.759 260.376ZM282.503 257.304C283.159 257.304 283.743 257.176 284.255 256.92C284.767 256.648 285.167 256.272 285.455 255.792C285.743 255.312 285.887 254.76 285.887 254.136C285.887 253.496 285.743 252.944 285.455 252.48C285.167 252 284.767 251.632 284.255 251.376C283.743 251.104 283.159 250.968 282.503 250.968C281.847 250.968 281.263 251.104 280.751 251.376C280.239 251.632 279.831 252 279.527 252.48C279.239 252.944 279.095 253.496 279.095 254.136C279.095 254.76 279.239 255.312 279.527 255.792C279.831 256.272 280.239 256.648 280.751 256.92C281.263 257.176 281.847 257.304 282.503 257.304ZM214.898 290V273.2H218.786V290H214.898ZM228.053 290.192C226.837 290.192 225.741 289.92 224.765 289.376C223.789 288.816 223.013 288.04 222.437 287.048C221.877 286.056 221.597 284.888 221.597 283.544C221.597 282.184 221.877 281.008 222.437 280.016C223.013 279.024 223.789 278.256 224.765 277.712C225.741 277.168 226.837 276.896 228.053 276.896C229.141 276.896 230.093 277.136 230.909 277.616C231.725 278.096 232.357 278.824 232.805 279.8C233.253 280.776 233.477 282.024 233.477 283.544C233.477 285.048 233.261 286.296 232.829 287.288C232.397 288.264 231.773 288.992 230.957 289.472C230.157 289.952 229.189 290.192 228.053 290.192ZM228.701 287.12C229.309 287.12 229.861 286.976 230.357 286.688C230.853 286.4 231.245 285.992 231.533 285.464C231.837 284.92 231.989 284.28 231.989 283.544C231.989 282.792 231.837 282.152 231.533 281.624C231.245 281.096 230.853 280.688 230.357 280.4C229.861 280.112 229.309 279.968 228.701 279.968C228.077 279.968 227.517 280.112 227.021 280.4C226.525 280.688 226.125 281.096 225.821 281.624C225.533 282.152 225.389 282.792 225.389 283.544C225.389 284.28 225.533 284.92 225.821 285.464C226.125 285.992 226.525 286.4 227.021 286.688C227.517 286.976 228.077 287.12 228.701 287.12ZM232.085 290V287.36L232.157 283.52L231.917 279.704V272.192H235.661V290H232.085ZM245.534 290.192C244.062 290.192 242.766 289.904 241.646 289.328C240.542 288.752 239.686 287.968 239.078 286.976C238.47 285.968 238.166 284.824 238.166 283.544C238.166 282.248 238.462 281.104 239.054 280.112C239.662 279.104 240.486 278.32 241.526 277.76C242.566 277.184 243.742 276.896 245.054 276.896C246.318 276.896 247.454 277.168 248.462 277.712C249.486 278.24 250.294 279.008 250.886 280.016C251.478 281.008 251.774 282.2 251.774 283.592C251.774 283.736 251.766 283.904 251.75 284.096C251.734 284.272 251.718 284.44 251.702 284.6H241.214V282.416H249.734L248.294 283.064C248.294 282.392 248.158 281.808 247.886 281.312C247.614 280.816 247.238 280.432 246.758 280.16C246.278 279.872 245.718 279.728 245.078 279.728C244.438 279.728 243.87 279.872 243.374 280.16C242.894 280.432 242.518 280.824 242.246 281.336C241.974 281.832 241.838 282.424 241.838 283.112V283.688C241.838 284.392 241.99 285.016 242.294 285.56C242.614 286.088 243.054 286.496 243.614 286.784C244.19 287.056 244.862 287.192 245.63 287.192C246.318 287.192 246.918 287.088 247.43 286.88C247.958 286.672 248.438 286.36 248.87 285.944L250.862 288.104C250.27 288.776 249.526 289.296 248.63 289.664C247.734 290.016 246.702 290.192 245.534 290.192ZM261.835 290V287.48L261.595 286.928V282.416C261.595 281.616 261.347 280.992 260.851 280.544C260.371 280.096 259.627 279.872 258.619 279.872C257.931 279.872 257.251 279.984 256.579 280.208C255.923 280.416 255.363 280.704 254.899 281.072L253.555 278.456C254.259 277.96 255.107 277.576 256.099 277.304C257.091 277.032 258.099 276.896 259.123 276.896C261.091 276.896 262.619 277.36 263.707 278.288C264.795 279.216 265.339 280.664 265.339 282.632V290H261.835ZM257.899 290.192C256.891 290.192 256.027 290.024 255.307 289.688C254.587 289.336 254.035 288.864 253.651 288.272C253.267 287.68 253.075 287.016 253.075 286.28C253.075 285.512 253.259 284.84 253.627 284.264C254.011 283.688 254.611 283.24 255.427 282.92C256.243 282.584 257.307 282.416 258.619 282.416H262.051V284.6H259.027C258.147 284.6 257.539 284.744 257.203 285.032C256.883 285.32 256.723 285.68 256.723 286.112C256.723 286.592 256.907 286.976 257.275 287.264C257.659 287.536 258.179 287.672 258.835 287.672C259.459 287.672 260.019 287.528 260.515 287.24C261.011 286.936 261.371 286.496 261.595 285.92L262.171 287.648C261.899 288.48 261.403 289.112 260.683 289.544C259.963 289.976 259.035 290.192 257.899 290.192ZM268.992 284.168L268.248 273.2H272.712L271.968 284.168H268.992ZM270.48 290.192C269.808 290.192 269.256 289.976 268.824 289.544C268.392 289.112 268.176 288.6 268.176 288.008C268.176 287.4 268.392 286.896 268.824 286.496C269.256 286.08 269.808 285.872 270.48 285.872C271.168 285.872 271.72 286.08 272.136 286.496C272.568 286.896 272.784 287.4 272.784 288.008C272.784 288.6 272.568 289.112 272.136 289.544C271.72 289.976 271.168 290.192 270.48 290.192Z" fill="white"/>
<path id="Vector_16" d="M287.167 406.084C286.339 414.616 281.416 419.828 273.803 423.149C271.272 424.253 269.149 426.281 266.809 427.841C264.229 429.56 261.665 432.581 259.006 432.681C248.258 433.086 237.476 432.585 226.359 431.814C227.958 428.778 229.44 425.03 231.935 424.147C240.855 420.992 246.513 415.548 248.455 406.028C261.671 406.018 274.419 406.051 287.167 406.084Z" fill="#5069AF"/>
<path id="Vector_17" d="M243.544 372.177C256.88 372.158 269.756 372.187 282.631 372.354C284.891 372.383 287.143 372.989 289.733 373.507C291.4 376.408 291.611 378.918 287.9 380.965C283.759 381.113 280.428 381.146 277.097 381.155C251.283 381.218 225.468 381.276 199.653 381.336C196.293 379.943 195.086 377.705 196.989 373.992C199.325 373.241 201.555 372.414 203.794 372.39C216.889 372.247 229.986 372.291 243.544 372.177Z" fill="#39394E"/>
<path id="Vector_18" d="M287.478 405.93C274.419 406.051 261.671 406.018 247.99 405.982C231.347 406.002 215.639 406.024 199.93 406.047C194.878 402.808 194.7 400.799 199.948 397.002C229.794 396.967 258.83 396.993 287.865 397.019C292.234 400.479 292.217 402.377 287.478 405.93Z" fill="#313351"/>
<path id="Vector_19" d="M199.942 393.998C194.873 390.421 194.7 388.633 199.879 384.882C229.784 384.859 258.87 384.892 287.957 384.926C292.161 388.376 292.188 389.727 287.414 393.588C257.783 393.888 228.863 393.943 199.942 393.998Z" fill="#313453"/>
<path id="Vector_20" d="M199.939 406.434C215.639 406.024 231.347 406.002 247.522 406.025C246.513 415.548 240.855 420.992 231.935 424.147C229.44 425.03 227.958 428.778 226.008 431.577C220.073 426.361 212.303 423.391 206.169 418.298C203.061 415.718 201.957 410.724 199.939 406.434Z" fill="#5971B4"/>
<path id="Vector_21" d="M287.901 384.546C258.87 384.892 229.784 384.859 200.215 384.773C199.713 383.818 199.694 382.916 199.664 381.675C225.468 381.276 251.283 381.218 277.097 381.155C280.428 381.146 283.759 381.113 287.556 381.104C287.963 382.133 287.904 383.15 287.901 384.546Z" fill="#5870B4"/>
<path id="Vector_22" d="M199.896 394.352C228.863 393.943 257.783 393.888 287.144 393.832C287.639 394.629 287.693 395.429 287.806 396.624C258.83 396.993 229.794 396.967 200.279 396.892C199.816 396.13 199.832 395.418 199.896 394.352Z" fill="#546CB0"/>
<path id="Vector_23" d="M213.706 434.212C210.143 432.008 206.237 430.646 203.683 427.986C198.01 422.077 192.987 415.54 187.784 409.19C187.236 408.522 187.007 407.384 187.043 406.48C187.282 400.416 187.8 394.357 187.824 388.295C187.829 386.91 186.257 385.519 185.343 384.019C187.041 381.955 187.041 381.955 183.514 365.893C172.483 376.693 161.348 387.771 149.984 398.608C146.868 401.579 145.074 404.177 145.765 408.972C146.429 413.58 140.955 419.194 136.706 419.99C130.977 421.062 124.187 417.91 122.066 413.195C119.889 408.354 121.03 401.602 125.171 398.487C127.083 397.049 129.92 396.034 132.269 396.154C137.313 396.412 140.282 394.323 143.41 390.487C148.242 384.561 154.117 379.491 159.466 373.976C160.482 372.93 161.108 371.505 162.554 369.263C163.455 368.669 165.744 367.563 167.52 365.907C171.779 361.933 175.987 357.864 179.8 353.473C180.971 352.124 181.579 349.393 181.109 347.656C177.922 335.866 171.192 326.062 163.427 316.8C160.026 312.746 157.381 308.058 153.948 303.002C141.658 303.002 128.545 303.002 115.433 303.002C107.1 303.002 98.7661 303.077 90.4352 302.955C88.0231 302.92 86.287 303.278 84.8331 305.548C81.8947 310.136 74.5685 311.204 69.1736 308.041C64.8098 305.482 62.0346 299.632 63.3368 295.175C65.4305 288.01 70.1319 284.128 76.6789 285.16C79.5018 285.605 82.0064 287.897 84.7309 289.192C86.9613 290.252 89.2945 291.856 91.5974 291.883C110.589 292.1 129.585 292.006 147.512 292.006C145.35 279.805 142.004 267.633 141.346 255.317C140.693 243.091 142.611 230.56 147.63 219.177C150.341 213.03 148.778 209.779 144.338 205.6C133.302 195.213 122.811 184.246 112.07 173.545C110.664 172.145 109.631 170.865 106.801 171.788C102.322 173.249 95.9927 169.144 94.2361 164.588C91.5815 157.703 93.6575 152.293 98.8977 148.781C103.528 145.678 110.132 146.632 113.704 150.103C117.173 153.476 118.501 157.208 117.675 161.931C117.505 162.907 117.955 164.358 118.652 165.065C130.812 177.402 143.055 189.658 155.328 201.979C174.543 170.383 206.101 153.322 237.7 151.854C237.7 143.122 237.7 134.366 237.7 125.172C236.303 125.062 234.755 124.941 233.206 124.819C233.086 124.48 232.966 124.141 232.846 123.803C234.39 123.158 235.935 122.513 238.006 121.649C238.511 119.074 237.838 116.487 234.639 113.849C229.876 109.923 230.337 99.8295 234.816 96.0404C240.043 91.6178 248.114 91.7259 253.21 97.4077C257.004 101.638 257.125 110.236 251.87 114.454C249.312 116.508 248.925 118.58 248.958 121.437C249.073 131.418 249.002 141.401 249.002 151.575C285.039 154.411 312.427 171.241 331.823 201.94C338.263 195.414 344.879 188.844 351.283 182.073C352.235 181.067 352.183 179.11 352.484 178C354.235 177.248 356.269 176.817 357.715 175.654C360.169 173.682 362.294 171.291 364.479 169.001C367.14 166.211 369.559 164.117 369.395 158.996C369.123 150.542 376.454 146.439 382.901 147.009C389.925 147.629 395.133 154.519 393.991 161.596C392.935 168.137 385.869 172.847 379.114 171.741C378.037 171.564 376.455 172.172 375.651 172.967C363.326 185.149 351.044 197.375 338.926 209.762C337.952 210.758 337.558 213.258 338.068 214.621C342.003 225.135 344.4 235.822 345.195 247.13C346.288 262.66 343.56 277.338 338.404 292.005C358.432 292.005 378.394 292.047 398.355 291.901C399.564 291.892 400.97 290.574 401.929 289.537C405.673 285.487 411.702 283.738 416.105 285.621C420.679 287.576 424.184 293.119 424.001 298.108C423.834 302.669 420.412 307.405 416.161 308.958C410.861 310.893 405.776 309.437 401.649 305.245C400.512 304.09 398.586 303.147 396.994 303.101C389.335 302.881 381.666 303.002 374.013 303.002C373.579 304.696 373.136 306.429 372.693 308.162C372.291 308.097 371.889 308.032 371.487 307.966C371.487 306.365 371.487 304.764 371.487 303.002C359.767 303.002 347.942 302.925 336.121 303.095C334.557 303.117 332.439 303.966 331.549 305.158C325.656 313.049 319.568 320.858 314.468 329.255C310.678 335.494 308.206 342.547 305.359 349.326C304.994 350.193 305.557 351.935 306.289 352.7C311.123 357.753 316.048 362.727 321.126 367.534C322.135 368.489 323.932 368.613 325.135 369.038C325.962 370.641 326.564 372.872 327.965 374.34C334.205 380.875 340.569 387.303 347.139 393.503C348.607 394.888 351.063 395.797 353.111 395.89C360.46 396.225 363.017 397.887 365.215 404.684C366.956 410.067 365.37 414.546 360.516 417.962C356.402 420.857 348.926 421.26 345.575 417.606C343.181 414.994 341.632 410.931 341.255 407.353C340.938 404.338 340.443 401.942 338.354 399.847C326.846 388.301 315.344 376.749 303.702 365.061C302.233 371.028 300.849 376.647 299.446 382.345C301.086 382.531 302.023 382.637 302.959 382.743C301.915 384.084 300.871 385.426 299.962 386.594C299.75 390.038 299.375 393.667 299.351 397.299C299.333 400.008 300.336 402.826 299.853 405.402C299.289 408.414 298.182 411.684 296.291 414.014C292.016 419.283 287.466 424.449 282.361 428.891C277.802 432.856 272.495 436.048 267.229 439.079C264.547 440.623 261.258 441.741 258.193 441.872C249.542 442.242 240.852 441.697 232.204 442.094C224.743 442.438 218.906 439.744 213.706 434.212ZM287.844 384.166C287.904 383.15 287.963 382.133 288.711 380.838C291.611 378.918 291.4 376.408 290.854 373.27C291.882 370.622 293.701 368.007 293.812 365.321C294.599 346.317 301.09 329.534 313.364 315.17C339.855 284.17 344.639 242.08 323.851 207.003C306.107 177.061 279.301 161.243 243.073 160.837C237.121 161.357 231.037 161.257 225.238 162.492C155.916 177.257 127.354 258.388 172.271 313.019C185.178 328.717 192.93 346.142 193.41 366.682C193.465 369.048 195.808 371.36 196.887 374.287C195.086 377.705 196.293 379.943 199.674 382.014C199.694 382.916 199.713 383.818 199.061 384.939C194.7 388.633 194.873 390.421 199.849 394.705C199.832 395.418 199.816 396.131 199.137 397.063C194.7 400.799 194.878 402.809 199.947 406.822C201.957 410.724 203.061 415.718 206.169 418.298C212.303 423.391 220.073 426.361 226.707 432.418C237.476 432.585 248.258 433.086 259.006 432.681C261.665 432.581 264.229 429.56 266.809 427.841C269.149 426.281 271.272 424.253 273.803 423.149C281.416 419.828 286.339 414.616 287.788 405.777C292.217 402.377 292.234 400.479 287.747 396.228C287.693 395.429 287.639 394.629 288.126 393.343C292.188 389.727 292.161 388.376 287.844 384.166Z" fill="#FDFDFD"/>
</g>
<g id="paper">
<path id="Vector_24" d="M426.687 90.1299C427.018 91.1216 427.002 92.1022 427.003 93.0828C427.008 104.317 427.009 104.317 415.241 102.249C418.768 97.9856 422.558 94.0522 426.687 90.1299Z" fill="#CAD5D8"/>
<path id="Vector_25" d="M426.152 121.002C435.859 121.002 445.085 121.002 454.311 121.002C454.307 121.46 454.302 121.918 454.298 122.376C442.77 122.376 431.243 122.376 419.715 122.376C419.691 121.918 419.668 121.46 419.644 121.002C421.654 121.002 423.663 121.002 426.152 121.002Z" fill="#E8EEEF"/>
<path id="Vector_26" d="M438.996 109.998C432.23 109.998 425.962 109.998 419.694 109.998C419.693 109.562 419.691 109.125 419.69 108.688C431.22 108.688 442.751 108.688 454.281 108.688C454.307 109.125 454.333 109.562 454.36 109.998C449.405 109.998 444.45 109.998 438.996 109.998Z" fill="#E9EEF0"/>
<path id="Vector_27" d="M420.784 112.089C432.232 112.032 443.266 112.032 454.3 112.032C454.353 112.431 454.406 112.831 454.46 113.23C453.544 113.487 452.63 113.963 451.713 113.968C442.107 114.024 432.499 114.051 422.895 113.924C422.045 113.913 421.211 112.766 420.784 112.089Z" fill="#E9EFF0"/>
<path id="Vector_28" d="M448.786 125.008C450.948 125.086 452.644 125.164 454.339 125.243C454.327 125.649 454.315 126.056 454.302 126.462C442.773 126.462 431.244 126.462 419.716 126.462C419.7 125.977 419.685 125.493 419.67 125.008C429.22 125.008 438.77 125.008 448.786 125.008Z" fill="#EAEFF1"/>
<path id="Vector_29" d="M422.483 129.996C433.382 129.994 443.836 129.994 454.289 129.994C454.293 130.424 454.297 130.854 454.301 131.284C442.772 131.284 431.243 131.284 419.714 131.284C419.665 131.066 419.616 130.849 419.567 130.632C420.391 130.42 421.215 130.209 422.483 129.996Z" fill="#E9EEF0"/>
<path id="Vector_30" d="M430.036 142.994C438.456 142.994 446.382 142.994 454.308 142.994C454.309 143.433 454.31 143.873 454.311 144.313C442.78 144.313 431.25 144.313 419.72 144.313C419.693 143.873 419.665 143.434 419.638 142.994C422.939 142.994 426.24 142.994 430.036 142.994Z" fill="#E9EEF0"/>
<path id="Vector_31" d="M448.732 116.999C450.782 116.999 452.372 116.999 453.963 116.999C453.961 117.245 453.959 117.491 453.956 117.738C442.66 117.738 431.364 117.738 420.068 117.738C420.066 117.491 420.064 117.245 420.062 116.999C429.466 116.999 438.869 116.999 448.732 116.999Z" fill="#E2E9EB"/>
<path id="Vector_32" d="M439.993 140.001C433.068 140.001 426.642 140.001 420.216 140.001C420.216 139.774 420.216 139.547 420.216 139.319C431.402 139.319 442.587 139.319 453.773 139.319C453.785 139.547 453.797 139.774 453.809 140.001C449.37 140.001 444.93 140.001 439.993 140.001Z" fill="#E2E9EB"/>
<path id="Vector_33" d="M427.026 90.141C436.665 90.0934 446.306 90.1206 455.943 89.9539C458.93 89.9022 460.068 90.8993 460.051 93.9748C459.951 111.597 459.936 129.22 460.059 146.841C460.083 150.213 458.772 151.087 455.626 151.054C443.159 150.926 430.689 150.951 418.221 151.041C415.406 151.061 413.914 150.424 413.951 147.189C414.121 132.233 414.124 117.275 414.845 102.449C427.009 104.317 427.008 104.317 427.003 93.0828C427.002 92.1022 427.018 91.1216 427.026 90.141ZM425.672 121.002C423.663 121.002 421.654 121.002 419.644 121.002C419.668 121.46 419.691 121.918 419.715 122.376C431.243 122.376 442.77 122.376 454.298 122.376C454.302 121.918 454.307 121.46 454.311 121.002C445.085 121.002 435.859 121.002 425.672 121.002ZM439.495 109.998C444.45 109.998 449.405 109.998 454.36 109.998C454.333 109.562 454.307 109.125 454.281 108.688C442.751 108.688 431.22 108.688 419.69 108.688C419.691 109.125 419.693 109.562 419.694 109.998C425.962 109.998 432.23 109.998 439.495 109.998ZM420.37 112.147C421.211 112.766 422.045 113.913 422.895 113.924C432.499 114.051 442.107 114.024 451.713 113.968C452.63 113.963 453.544 113.487 454.46 113.23C454.406 112.831 454.353 112.431 454.3 112.032C443.266 112.032 432.232 112.032 420.37 112.147ZM448.32 125.008C438.77 125.008 429.22 125.008 419.67 125.008C419.685 125.493 419.7 125.977 419.716 126.462C431.244 126.462 442.773 126.462 454.302 126.462C454.315 126.056 454.327 125.649 454.339 125.243C452.644 125.164 450.948 125.086 448.32 125.008ZM422.038 129.998C421.215 130.209 420.391 130.42 419.567 130.632C419.616 130.849 419.665 131.066 419.714 131.284C431.243 131.284 442.772 131.284 454.301 131.284C454.297 130.854 454.293 130.424 454.289 129.994C443.836 129.994 433.382 129.994 422.038 129.998ZM429.541 142.994C426.24 142.994 422.939 142.994 419.638 142.994C419.665 143.434 419.693 143.873 419.72 144.313C431.25 144.313 442.78 144.313 454.311 144.313C454.31 143.873 454.309 143.433 454.308 142.994C446.382 142.994 438.456 142.994 429.541 142.994ZM448.273 116.999C438.869 116.999 429.466 116.999 420.062 116.999C420.064 117.245 420.066 117.491 420.068 117.738C431.364 117.738 442.66 117.738 453.956 117.738C453.959 117.491 453.961 117.245 453.963 116.999C452.372 116.999 450.782 116.999 448.273 116.999ZM440.491 140.001C444.93 140.001 449.37 140.001 453.809 140.001C453.797 139.774 453.785 139.547 453.773 139.319C442.587 139.319 431.402 139.319 420.216 139.319C420.216 139.547 420.216 139.774 420.216 140.001C426.642 140.001 433.068 140.001 440.491 140.001Z" fill="#FCFDFD"/>
</g>
<g id="magnifying-glass">
<path id="Vector_34" d="M355.438 478C354.417 476.898 353.834 475.796 353.248 474.085C361.305 465.591 369.363 457.707 377.692 449.99C379.321 451.182 380.681 452.206 382.041 453.23C380.773 455.569 379.896 458.258 378.166 460.18C372.885 466.049 367.276 471.621 361.898 477.655C359.958 478 357.917 478 355.438 478Z" fill="#2F5282"/>
<path id="Vector_35" d="M384.943 434.989C379.795 425.029 379 415.159 384.951 405.112C392.425 392.494 409.569 387.87 422.986 396.596C435.445 404.699 437.664 416.833 433.684 429.124C429.655 441.565 417.615 448.077 405.001 446.861C401.159 446.491 397.478 444.454 393.307 442.689C390.243 439.795 387.593 437.392 384.943 434.989ZM427.836 418.179C426.272 406.427 418.323 399.348 407.122 399.732C396.436 400.1 388.816 407.854 388.067 419.766C388.649 431.23 398.139 440.42 408.672 439.721C419.93 438.973 428.267 429.89 427.836 418.179Z" fill="#FBFDFD"/>
<path id="Vector_36" d="M377.692 449.99C376.325 448.475 375.228 447.127 374.107 445.458C377.49 441.819 380.897 438.502 384.623 435.087C387.593 437.392 390.243 439.795 392.965 442.52C389.572 446.19 386.106 449.538 382.34 453.058C380.681 452.206 379.321 451.182 377.692 449.99Z" fill="#C9CDCE"/>
<path id="Vector_37" d="M377.422 449.823C369.363 457.707 361.305 465.591 353.103 473.785C347.826 469.685 347.766 469.623 352.362 465.163C359.318 458.415 366.368 451.762 373.754 445.424C375.228 447.127 376.325 448.475 377.422 449.823Z" fill="#285994"/>
<path id="Vector_38" d="M388.151 419.359C389.562 420.534 390.932 422.082 392.207 423.704C400.873 434.726 418.739 433.596 425.562 420.956C425.935 420.265 426.582 419.721 427.419 419.029C428.267 429.89 419.93 438.973 408.672 439.721C398.139 440.42 388.649 431.23 388.151 419.359Z" fill="#65C2ED"/>
<path id="Vector_39" d="M388.236 418.952C388.816 407.854 396.436 400.1 407.122 399.732C418.323 399.348 426.272 406.427 427.469 418.644C426.582 419.721 425.935 420.265 425.562 420.956C418.739 433.596 400.873 434.726 392.207 423.704C390.932 422.082 389.562 420.534 388.236 418.952Z" fill="#4BAEE2"/>
</g>
<g id="location">
<path id="Vector_40" d="M55.6763 116.25C49.811 101.28 60.5388 84.1538 78.0871 84.3914C94.6259 84.6153 106.213 98.9529 100.603 114.995C96.2519 127.438 89.4485 139.044 83.4316 150.868C81.7631 154.147 74.379 154.252 72.6966 150.978C66.8685 139.637 61.469 128.075 55.6763 116.25ZM63.3874 103.302C63.2583 104.447 63.0227 105.591 63.0169 106.736C62.9699 115.872 69.7846 122.413 78.8684 121.997C86.9144 121.628 93.7689 113.536 92.9821 105.334C92.3564 98.8118 86.696 92.9307 80.1882 92.0408C72.8623 91.0391 66.7459 94.9399 63.3874 103.302Z" fill="#EF5069"/>
<path id="Vector_41" d="M73.4478 112.891C70.1312 109.74 69.1234 106.029 71.9322 103.017C73.7016 101.12 77.3051 99.7981 79.9 100.06C84.3318 100.507 86.2837 105.09 84.8917 109.638C83.5908 113.889 79.7424 115.099 73.4478 112.891Z" fill="#EEB986"/>
<path id="Vector_42" d="M63.5449 102.928C66.7459 94.9399 72.8623 91.0391 80.1882 92.0408C86.696 92.9307 92.3564 98.8118 92.9821 105.334C93.7689 113.536 86.9144 121.628 78.8684 121.997C69.7845 122.413 62.9699 115.872 63.0169 106.736C63.0227 105.591 63.2583 104.447 63.5449 102.928ZM73.7509 113.141C79.7424 115.099 83.5908 113.889 84.8917 109.638C86.2837 105.09 84.3318 100.507 79.9 100.06C77.3051 99.7981 73.7016 101.12 71.9323 103.017C69.1234 106.029 70.1312 109.74 73.7509 113.141Z" fill="#D34860"/>
</g>
<path id="dotted-circle" d="M381.865 253.083C381.925 254.391 381.965 255.704 381.985 257.021L381.485 257.028C381.495 257.684 381.5 258.342 381.5 259C381.5 259.658 381.495 260.315 381.485 260.972L381.985 260.979C381.965 262.296 381.925 263.609 381.865 264.917L381.366 264.894C381.306 266.207 381.226 267.514 381.127 268.817L381.625 268.855C381.525 270.167 381.405 271.473 381.266 272.774L380.768 272.72C380.628 274.027 380.468 275.329 380.289 276.624L380.784 276.693C380.604 277.996 380.403 279.294 380.184 280.585L379.691 280.502C379.471 281.795 379.231 283.083 378.973 284.364L379.463 284.463C379.202 285.754 378.922 287.038 378.623 288.315L378.136 288.201C377.837 289.477 377.519 290.746 377.182 292.008L377.665 292.137C377.326 293.409 376.967 294.674 376.59 295.932L376.111 295.788C375.734 297.042 375.339 298.289 374.925 299.529L375.4 299.687C374.983 300.935 374.547 302.176 374.094 303.409L373.624 303.236C373.172 304.465 372.701 305.687 372.212 306.899L372.676 307.086C372.184 308.306 371.674 309.517 371.147 310.72L370.689 310.519C370.163 311.719 369.618 312.909 369.057 314.091L369.508 314.306C368.944 315.493 368.363 316.671 367.764 317.84L367.319 317.612C366.721 318.778 366.107 319.934 365.476 321.081L365.914 321.322C365.28 322.473 364.629 323.615 363.961 324.746L363.53 324.492C362.865 325.62 362.183 326.738 361.485 327.845L361.908 328.112C361.208 329.224 360.491 330.325 359.758 331.416L359.343 331.137C358.612 332.223 357.866 333.3 357.104 334.365L357.511 334.656C356.747 335.724 355.967 336.782 355.172 337.829L354.774 337.526C353.982 338.569 353.175 339.6 352.353 340.62L352.742 340.934C351.918 341.956 351.079 342.968 350.225 343.967L349.845 343.643C348.995 344.637 348.131 345.621 347.252 346.593L347.623 346.928C346.742 347.902 345.846 348.865 344.937 349.815L344.575 349.469C343.671 350.414 342.753 351.347 341.821 352.268L342.172 352.624C341.238 353.547 340.289 354.458 339.328 355.356L338.986 354.991C338.031 355.884 337.062 356.764 336.08 357.631L336.411 358.006C335.428 358.876 334.431 359.732 333.421 360.576L333.1 360.192C332.097 361.031 331.08 361.857 330.051 362.67L330.361 363.062C329.332 363.876 328.29 364.676 327.236 365.463L326.937 365.062C325.888 365.845 324.827 366.615 323.755 367.371L324.043 367.78C322.971 368.536 321.887 369.278 320.793 370.006L320.516 369.59C319.426 370.315 318.325 371.026 317.214 371.723L317.479 372.146C316.368 372.843 315.246 373.526 314.113 374.194L313.859 373.764C312.732 374.428 311.595 375.079 310.448 375.715L310.691 376.152C309.543 376.789 308.385 377.411 307.217 378.018L306.986 377.575C305.827 378.178 304.658 378.767 303.479 379.34L303.697 379.79C302.517 380.365 301.326 380.925 300.127 381.47L299.92 381.014C298.731 381.555 297.532 382.08 296.325 382.59L296.52 383.051C295.311 383.562 294.092 384.058 292.866 384.539L292.683 384.074C291.467 384.55 290.242 385.012 289.009 385.458L289.18 385.928C287.946 386.375 286.704 386.806 285.454 387.221L285.296 386.747C284.056 387.159 282.808 387.556 281.552 387.937L281.697 388.416C280.443 388.797 279.181 389.162 277.912 389.511L277.779 389.029C276.518 389.377 275.25 389.708 273.974 390.024L274.094 390.509C272.823 390.824 271.545 391.123 270.26 391.405L270.152 390.917C268.874 391.198 267.589 391.464 266.298 391.713L266.392 392.204C265.108 392.452 263.816 392.685 262.519 392.901L262.437 392.407C261.146 392.622 259.85 392.821 258.547 393.004L258.617 393.499C257.321 393.681 256.019 393.846 254.712 393.996L254.655 393.499C253.356 393.647 252.051 393.779 250.742 393.895L250.786 394.393C249.482 394.509 248.172 394.608 246.858 394.691L246.827 394.192C245.523 394.274 244.214 394.34 242.901 394.389L242.919 394.889C241.61 394.938 240.297 394.971 238.98 394.988L238.973 394.488C238.317 394.496 237.659 394.5 237 394.5C236.341 394.5 235.683 394.496 235.027 394.488L235.02 394.988C233.703 394.971 232.39 394.938 231.081 394.889L231.099 394.389C229.786 394.34 228.477 394.274 227.173 394.192L227.142 394.691C225.828 394.608 224.518 394.509 223.214 394.393L223.258 393.895C221.949 393.779 220.644 393.647 219.345 393.499L219.288 393.996C217.981 393.846 216.679 393.681 215.383 393.499L215.453 393.004C214.15 392.821 212.854 392.622 211.563 392.407L211.481 392.901C210.184 392.685 208.893 392.452 207.608 392.204L207.702 391.713C206.411 391.464 205.126 391.198 203.848 390.917L203.74 391.405C202.455 391.123 201.177 390.824 199.906 390.509L200.026 390.024C198.75 389.708 197.482 389.377 196.221 389.029L196.088 389.511C194.819 389.162 193.557 388.797 192.303 388.416L192.448 387.937C191.192 387.556 189.944 387.159 188.704 386.747L188.546 387.221C187.296 386.806 186.054 386.375 184.82 385.928L184.991 385.458C183.758 385.012 182.533 384.55 181.317 384.074L181.134 384.539C179.908 384.058 178.689 383.562 177.48 383.051L177.675 382.59C176.468 382.08 175.269 381.555 174.08 381.015L173.873 381.47C172.674 380.925 171.483 380.365 170.303 379.79L170.521 379.34C169.343 378.767 168.173 378.178 167.014 377.575L166.783 378.018C165.615 377.411 164.457 376.789 163.309 376.152L163.552 375.715C162.405 375.079 161.268 374.428 160.141 373.764L159.887 374.194C158.754 373.526 157.632 372.843 156.521 372.146L156.786 371.723C155.675 371.026 154.574 370.315 153.484 369.59L153.207 370.006C152.113 369.278 151.029 368.536 149.957 367.78L150.245 367.371C149.173 366.615 148.112 365.845 147.063 365.062L146.764 365.463C145.71 364.676 144.668 363.876 143.639 363.062L143.949 362.67C142.92 361.857 141.904 361.031 140.9 360.192L140.579 360.576C139.569 359.732 138.573 358.876 137.589 358.006L137.92 357.631C136.938 356.764 135.969 355.884 135.014 354.991L134.672 355.356C133.711 354.458 132.762 353.547 131.828 352.624L132.179 352.268C131.247 351.347 130.329 350.414 129.425 349.469L129.063 349.815C128.154 348.865 127.258 347.902 126.377 346.928L126.748 346.593C125.869 345.621 125.005 344.638 124.155 343.643L123.775 343.967C122.921 342.968 122.082 341.956 121.258 340.934L121.647 340.62C120.825 339.6 120.018 338.569 119.226 337.526L118.828 337.829C118.033 336.782 117.253 335.724 116.489 334.656L116.896 334.365C116.134 333.3 115.388 332.224 114.657 331.137L114.242 331.416C113.509 330.325 112.792 329.224 112.092 328.112L112.515 327.846C111.817 326.738 111.135 325.62 110.47 324.492L110.039 324.746C109.371 323.615 108.72 322.473 108.087 321.322L108.524 321.081C107.893 319.934 107.279 318.778 106.681 317.612L106.236 317.84C105.637 316.671 105.056 315.493 104.492 314.306L104.943 314.091C104.382 312.909 103.837 311.719 103.311 310.519L102.853 310.72C102.326 309.517 101.816 308.306 101.324 307.086L101.788 306.899C101.299 305.687 100.828 304.465 100.376 303.236L99.9064 303.409C99.4526 302.176 99.0171 300.935 98.6003 299.687L99.0746 299.529C98.6609 298.289 98.2656 297.042 97.8891 295.788L97.4102 295.932C97.0328 294.674 96.6741 293.409 96.3346 292.137L96.8177 292.008C96.4807 290.746 96.1627 289.477 95.8638 288.201L95.377 288.315C95.0778 287.038 94.7978 285.754 94.5373 284.463L95.0274 284.364C94.7686 283.083 94.5291 281.795 94.3091 280.502L93.8162 280.585C93.5966 279.294 93.3964 277.996 93.2159 276.693L93.7112 276.624C93.5317 275.329 93.3718 274.027 93.2316 272.72L92.7345 272.774C92.595 271.473 92.475 270.167 92.3749 268.855L92.8734 268.817C92.774 267.514 92.6942 266.207 92.6342 264.894L92.1348 264.917C92.0751 263.609 92.0351 262.296 92.015 260.979L92.515 260.972C92.505 260.316 92.5 259.658 92.5 259C92.5 258.342 92.505 257.685 92.515 257.028L92.015 257.021C92.0351 255.704 92.0751 254.391 92.1348 253.083L92.6342 253.106C92.6942 251.793 92.774 250.486 92.8734 249.183L92.3749 249.145C92.475 247.833 92.595 246.527 92.7345 245.226L93.2316 245.28C93.3717 243.973 93.5317 242.671 93.7112 241.376L93.2159 241.307C93.3964 240.004 93.5966 238.706 93.8162 237.415L94.3091 237.498C94.5291 236.205 94.7686 234.917 95.0274 233.636L94.5373 233.537C94.7978 232.246 95.0778 230.963 95.377 229.685L95.8638 229.799C96.1627 228.523 96.4807 227.254 96.8177 225.992L96.3346 225.863C96.6741 224.591 97.0328 223.326 97.4102 222.068L97.8891 222.212C98.2656 220.958 98.6609 219.711 99.0746 218.471L98.6003 218.313C99.0171 217.065 99.4526 215.824 99.9064 214.591L100.376 214.764C100.828 213.535 101.299 212.313 101.788 211.101L101.324 210.914C101.816 209.694 102.326 208.483 102.853 207.28L103.311 207.481C103.837 206.281 104.382 205.091 104.943 203.909L104.492 203.694C105.056 202.507 105.637 201.329 106.236 200.16L106.681 200.388C107.279 199.222 107.893 198.066 108.524 196.919L108.086 196.678C108.72 195.527 109.371 194.385 110.039 193.254L110.47 193.508C111.135 192.38 111.817 191.262 112.515 190.155L112.092 189.888C112.792 188.776 113.509 187.675 114.242 186.584L114.657 186.863C115.388 185.777 116.134 184.7 116.896 183.635L116.489 183.344C117.253 182.276 118.033 181.218 118.828 180.171L119.226 180.474C120.018 179.431 120.825 178.4 121.647 177.38L121.258 177.066C122.082 176.044 122.921 175.032 123.775 174.033L124.155 174.358C125.005 173.363 125.869 172.379 126.748 171.407L126.377 171.072C127.258 170.098 128.154 169.135 129.063 168.185L129.425 168.531C130.329 167.586 131.247 166.653 132.179 165.732L131.828 165.376C132.762 164.453 133.711 163.542 134.672 162.644L135.014 163.009C135.969 162.116 136.938 161.236 137.92 160.369L137.589 159.994C138.573 159.124 139.569 158.268 140.579 157.424L140.9 157.808C141.903 156.969 142.92 156.143 143.949 155.33L143.639 154.938C144.668 154.124 145.71 153.324 146.764 152.537L147.063 152.938C148.112 152.155 149.173 151.385 150.245 150.629L149.957 150.22C151.029 149.464 152.113 148.722 153.207 147.994L153.484 148.41C154.574 147.685 155.675 146.974 156.786 146.277L156.521 145.854C157.632 145.157 158.754 144.474 159.887 143.806L160.141 144.236C161.268 143.572 162.405 142.921 163.552 142.285L163.309 141.848C164.457 141.211 165.615 140.589 166.783 139.982L167.013 140.425C168.173 139.822 169.343 139.233 170.521 138.66L170.303 138.21C171.483 137.635 172.674 137.075 173.873 136.53L174.08 136.985C175.269 136.445 176.468 135.92 177.675 135.41L177.48 134.949C178.689 134.438 179.908 133.942 181.134 133.461L181.317 133.926C182.533 133.45 183.758 132.988 184.991 132.542L184.82 132.072C186.054 131.625 187.296 131.194 188.546 130.779L188.704 131.253C189.944 130.841 191.192 130.444 192.448 130.063L192.303 129.584C193.557 129.203 194.819 128.838 196.088 128.489L196.221 128.971C197.482 128.623 198.75 128.292 200.026 127.976L199.906 127.491C201.177 127.176 202.455 126.877 203.74 126.595L203.848 127.083C205.126 126.802 206.411 126.536 207.702 126.287L207.608 125.796C208.892 125.548 210.184 125.315 211.481 125.099L211.563 125.593C212.854 125.378 214.15 125.179 215.453 124.996L215.383 124.501C216.679 124.319 217.981 124.154 219.288 124.004L219.345 124.501C220.644 124.353 221.949 124.221 223.258 124.105L223.214 123.607C224.518 123.491 225.828 123.392 227.142 123.309L227.173 123.808C228.477 123.726 229.786 123.66 231.099 123.611L231.081 123.111C232.39 123.062 233.703 123.029 235.02 123.012L235.027 123.512C235.683 123.504 236.341 123.5 237 123.5C237.659 123.5 238.317 123.504 238.973 123.512L238.98 123.012C240.297 123.029 241.61 123.062 242.919 123.111L242.901 123.611C244.214 123.66 245.523 123.726 246.827 123.808L246.858 123.309C248.172 123.392 249.482 123.491 250.786 123.607L250.742 124.105C252.051 124.221 253.356 124.353 254.655 124.501L254.712 124.004C256.019 124.154 257.321 124.319 258.617 124.501L258.547 124.996C259.85 125.179 261.146 125.378 262.437 125.593L262.519 125.099C263.816 125.315 265.107 125.548 266.392 125.796L266.298 126.287C267.589 126.536 268.874 126.801 270.152 127.083L270.26 126.595C271.545 126.877 272.823 127.176 274.094 127.491L273.974 127.976C275.25 128.292 276.518 128.623 277.779 128.971L277.912 128.489C279.181 128.838 280.443 129.203 281.697 129.584L281.552 130.063C282.808 130.444 284.056 130.841 285.296 131.253L285.454 130.779C286.704 131.194 287.946 131.625 289.18 132.072L289.009 132.542C290.242 132.988 291.467 133.45 292.683 133.926L292.866 133.461C294.092 133.942 295.311 134.438 296.52 134.949L296.325 135.41C297.532 135.92 298.731 136.445 299.92 136.985L300.127 136.53C301.326 137.075 302.517 137.635 303.697 138.21L303.479 138.66C304.657 139.233 305.827 139.822 306.986 140.425L307.217 139.982C308.385 140.589 309.543 141.211 310.691 141.848L310.448 142.285C311.595 142.921 312.732 143.572 313.859 144.236L314.113 143.806C315.246 144.474 316.368 145.157 317.479 145.854L317.214 146.277C318.325 146.974 319.426 147.685 320.516 148.41L320.793 147.994C321.887 148.722 322.971 149.464 324.043 150.22L323.755 150.629C324.827 151.385 325.888 152.155 326.937 152.938L327.236 152.537C328.29 153.324 329.332 154.124 330.361 154.938L330.051 155.33C331.08 156.143 332.096 156.969 333.1 157.808L333.421 157.424C334.431 158.268 335.427 159.124 336.411 159.994L336.08 160.369C337.062 161.236 338.031 162.116 338.986 163.009L339.328 162.644C340.289 163.542 341.238 164.453 342.172 165.376L341.821 165.732C342.753 166.653 343.671 167.586 344.575 168.531L344.937 168.185C345.846 169.135 346.742 170.098 347.623 171.072L347.252 171.407C348.131 172.379 348.995 173.362 349.845 174.357L350.225 174.033C351.079 175.032 351.918 176.044 352.742 177.066L352.353 177.38C353.175 178.4 353.982 179.431 354.774 180.474L355.172 180.171C355.967 181.218 356.747 182.276 357.511 183.344L357.104 183.635C357.866 184.7 358.612 185.776 359.343 186.863L359.758 186.584C360.491 187.675 361.208 188.776 361.908 189.888L361.485 190.154C362.183 191.262 362.865 192.38 363.53 193.508L363.961 193.254C364.629 194.385 365.28 195.527 365.913 196.678L365.475 196.919C366.107 198.066 366.721 199.222 367.319 200.388L367.764 200.16C368.363 201.329 368.944 202.507 369.508 203.694L369.057 203.909C369.618 205.091 370.163 206.281 370.689 207.481L371.147 207.28C371.674 208.483 372.184 209.694 372.676 210.914L372.212 211.101C372.701 212.313 373.172 213.535 373.624 214.764L374.094 214.591C374.547 215.824 374.983 217.065 375.4 218.313L374.925 218.471C375.339 219.711 375.734 220.958 376.111 222.212L376.59 222.068C376.967 223.326 377.326 224.591 377.665 225.863L377.182 225.992C377.519 227.254 377.837 228.523 378.136 229.799L378.623 229.685C378.922 230.962 379.202 232.246 379.463 233.537L378.973 233.636C379.231 234.917 379.471 236.205 379.691 237.498L380.184 237.415C380.403 238.706 380.604 240.004 380.784 241.307L380.289 241.376C380.468 242.671 380.628 243.973 380.768 245.28L381.266 245.226C381.405 246.527 381.525 247.833 381.625 249.145L381.127 249.183C381.226 250.486 381.306 251.793 381.366 253.106L381.865 253.083Z" stroke="white" stroke-dasharray="4 4"/>
</g>
<defs>
<clipPath id="clip0_2065_4">
<rect width="490" height="477" fill="white"/>
</clipPath>
</defs>
</svg>
